<?xml version="1.0" encoding="utf-8" standalone="no"?>
<!DOCTYPE svg PUBLIC "-//W3C//DTD SVG 1.1//EN"
  "http://www.w3.org/Graphics/SVG/1.1/DTD/svg11.dtd">
<svg xmlns:xlink="http://www.w3.org/1999/xlink" width="953.28pt" height="345.6pt" viewBox="0 0 953.28 345.6" xmlns="http://www.w3.org/2000/svg" version="1.1">
 <metadata>
  <rdf:RDF xmlns:dc="http://purl.org/dc/elements/1.1/" xmlns:cc="http://creativecommons.org/ns#" xmlns:rdf="http://www.w3.org/1999/02/22-rdf-syntax-ns#">
   <cc:Work>
    <dc:type rdf:resource="http://purl.org/dc/dcmitype/StillImage"/>
    <dc:date>2025-06-02T20:15:21.841707</dc:date>
    <dc:format>image/svg+xml</dc:format>
    <dc:creator>
     <cc:Agent>
      <dc:title>Matplotlib v3.7.1, https://matplotlib.org/</dc:title>
     </cc:Agent>
    </dc:creator>
   </cc:Work>
  </rdf:RDF>
 </metadata>
 <defs>
  <style type="text/css">*{stroke-linejoin: round; stroke-linecap: butt}</style>
 </defs>
 <g id="figure_1">
  <g id="patch_1">
   <path d="M 0 345.6 
L 953.28 345.6 
L 953.28 0 
L 0 0 
z
" style="fill: #ffffff"/>
  </g>
  <g id="axes_1">
   <g id="patch_2">
    <path d="M 119.16 307.584 
L 857.952 307.584 
L 857.952 41.472 
L 119.16 41.472 
z
" style="fill: #ffffff"/>
   </g>
   <g id="matplotlib.axis_1">
    <g id="xtick_1">
     <g id="line2d_1">
      <path d="M 120.059567 307.584 
L 120.059567 41.472 
" clip-path="url(#pdef529a08f)" style="fill: none; stroke: #b0b0b0; stroke-width: 0.8; stroke-linecap: square"/>
     </g>
     <g id="line2d_2">
      <defs>
       <path id="m4015d16329" d="M 0 0 
L 0 3.5 
" style="stroke: #000000; stroke-width: 0.8"/>
      </defs>
      <g>
       <use xlink:href="#m4015d16329" x="120.059567" y="307.584" style="stroke: #000000; stroke-width: 0.8"/>
      </g>
     </g>
     <g id="text_1">
      <!-- 0 -->
      <g transform="translate(116.878317 322.182437) scale(0.1 -0.1)">
       <defs>
        <path id="DejaVuSans-30" d="M 2034 4250 
Q 1547 4250 1301 3770 
Q 1056 3291 1056 2328 
Q 1056 1369 1301 889 
Q 1547 409 2034 409 
Q 2525 409 2770 889 
Q 3016 1369 3016 2328 
Q 3016 3291 2770 3770 
Q 2525 4250 2034 4250 
z
M 2034 4750 
Q 2819 4750 3233 4129 
Q 3647 3509 3647 2328 
Q 3647 1150 3233 529 
Q 2819 -91 2034 -91 
Q 1250 -91 836 529 
Q 422 1150 422 2328 
Q 422 3509 836 4129 
Q 1250 4750 2034 4750 
z
" transform="scale(0.015625)"/>
       </defs>
       <use xlink:href="#DejaVuSans-30"/>
      </g>
     </g>
    </g>
    <g id="xtick_2">
     <g id="line2d_3">
      <path d="M 203.821272 307.584 
L 203.821272 41.472 
" clip-path="url(#pdef529a08f)" style="fill: none; stroke: #b0b0b0; stroke-width: 0.8; stroke-linecap: square"/>
     </g>
     <g id="line2d_4">
      <g>
       <use xlink:href="#m4015d16329" x="203.821272" y="307.584" style="stroke: #000000; stroke-width: 0.8"/>
      </g>
     </g>
     <g id="text_2">
      <!-- 5000 -->
      <g transform="translate(191.096272 322.182437) scale(0.1 -0.1)">
       <defs>
        <path id="DejaVuSans-35" d="M 691 4666 
L 3169 4666 
L 3169 4134 
L 1269 4134 
L 1269 2991 
Q 1406 3038 1543 3061 
Q 1681 3084 1819 3084 
Q 2600 3084 3056 2656 
Q 3513 2228 3513 1497 
Q 3513 744 3044 326 
Q 2575 -91 1722 -91 
Q 1428 -91 1123 -41 
Q 819 9 494 109 
L 494 744 
Q 775 591 1075 516 
Q 1375 441 1709 441 
Q 2250 441 2565 725 
Q 2881 1009 2881 1497 
Q 2881 1984 2565 2268 
Q 2250 2553 1709 2553 
Q 1456 2553 1204 2497 
Q 953 2441 691 2322 
L 691 4666 
z
" transform="scale(0.015625)"/>
       </defs>
       <use xlink:href="#DejaVuSans-35"/>
       <use xlink:href="#DejaVuSans-30" x="63.623047"/>
       <use xlink:href="#DejaVuSans-30" x="127.246094"/>
       <use xlink:href="#DejaVuSans-30" x="190.869141"/>
      </g>
     </g>
    </g>
    <g id="xtick_3">
     <g id="line2d_5">
      <path d="M 287.582978 307.584 
L 287.582978 41.472 
" clip-path="url(#pdef529a08f)" style="fill: none; stroke: #b0b0b0; stroke-width: 0.8; stroke-linecap: square"/>
     </g>
     <g id="line2d_6">
      <g>
       <use xlink:href="#m4015d16329" x="287.582978" y="307.584" style="stroke: #000000; stroke-width: 0.8"/>
      </g>
     </g>
     <g id="text_3">
      <!-- 10000 -->
      <g transform="translate(271.676728 322.182437) scale(0.1 -0.1)">
       <defs>
        <path id="DejaVuSans-31" d="M 794 531 
L 1825 531 
L 1825 4091 
L 703 3866 
L 703 4441 
L 1819 4666 
L 2450 4666 
L 2450 531 
L 3481 531 
L 3481 0 
L 794 0 
L 794 531 
z
" transform="scale(0.015625)"/>
       </defs>
       <use xlink:href="#DejaVuSans-31"/>
       <use xlink:href="#DejaVuSans-30" x="63.623047"/>
       <use xlink:href="#DejaVuSans-30" x="127.246094"/>
       <use xlink:href="#DejaVuSans-30" x="190.869141"/>
       <use xlink:href="#DejaVuSans-30" x="254.492188"/>
      </g>
     </g>
    </g>
    <g id="xtick_4">
     <g id="line2d_7">
      <path d="M 371.344683 307.584 
L 371.344683 41.472 
" clip-path="url(#pdef529a08f)" style="fill: none; stroke: #b0b0b0; stroke-width: 0.8; stroke-linecap: square"/>
     </g>
     <g id="line2d_8">
      <g>
       <use xlink:href="#m4015d16329" x="371.344683" y="307.584" style="stroke: #000000; stroke-width: 0.8"/>
      </g>
     </g>
     <g id="text_4">
      <!-- 15000 -->
      <g transform="translate(355.438433 322.182437) scale(0.1 -0.1)">
       <use xlink:href="#DejaVuSans-31"/>
       <use xlink:href="#DejaVuSans-35" x="63.623047"/>
       <use xlink:href="#DejaVuSans-30" x="127.246094"/>
       <use xlink:href="#DejaVuSans-30" x="190.869141"/>
       <use xlink:href="#DejaVuSans-30" x="254.492188"/>
      </g>
     </g>
    </g>
    <g id="xtick_5">
     <g id="line2d_9">
      <path d="M 455.106388 307.584 
L 455.106388 41.472 
" clip-path="url(#pdef529a08f)" style="fill: none; stroke: #b0b0b0; stroke-width: 0.8; stroke-linecap: square"/>
     </g>
     <g id="line2d_10">
      <g>
       <use xlink:href="#m4015d16329" x="455.106388" y="307.584" style="stroke: #000000; stroke-width: 0.8"/>
      </g>
     </g>
     <g id="text_5">
      <!-- 20000 -->
      <g transform="translate(439.200138 322.182437) scale(0.1 -0.1)">
       <defs>
        <path id="DejaVuSans-32" d="M 1228 531 
L 3431 531 
L 3431 0 
L 469 0 
L 469 531 
Q 828 903 1448 1529 
Q 2069 2156 2228 2338 
Q 2531 2678 2651 2914 
Q 2772 3150 2772 3378 
Q 2772 3750 2511 3984 
Q 2250 4219 1831 4219 
Q 1534 4219 1204 4116 
Q 875 4013 500 3803 
L 500 4441 
Q 881 4594 1212 4672 
Q 1544 4750 1819 4750 
Q 2544 4750 2975 4387 
Q 3406 4025 3406 3419 
Q 3406 3131 3298 2873 
Q 3191 2616 2906 2266 
Q 2828 2175 2409 1742 
Q 1991 1309 1228 531 
z
" transform="scale(0.015625)"/>
       </defs>
       <use xlink:href="#DejaVuSans-32"/>
       <use xlink:href="#DejaVuSans-30" x="63.623047"/>
       <use xlink:href="#DejaVuSans-30" x="127.246094"/>
       <use xlink:href="#DejaVuSans-30" x="190.869141"/>
       <use xlink:href="#DejaVuSans-30" x="254.492188"/>
      </g>
     </g>
    </g>
    <g id="xtick_6">
     <g id="line2d_11">
      <path d="M 538.868093 307.584 
L 538.868093 41.472 
" clip-path="url(#pdef529a08f)" style="fill: none; stroke: #b0b0b0; stroke-width: 0.8; stroke-linecap: square"/>
     </g>
     <g id="line2d_12">
      <g>
       <use xlink:href="#m4015d16329" x="538.868093" y="307.584" style="stroke: #000000; stroke-width: 0.8"/>
      </g>
     </g>
     <g id="text_6">
      <!-- 25000 -->
      <g transform="translate(522.961843 322.182437) scale(0.1 -0.1)">
       <use xlink:href="#DejaVuSans-32"/>
       <use xlink:href="#DejaVuSans-35" x="63.623047"/>
       <use xlink:href="#DejaVuSans-30" x="127.246094"/>
       <use xlink:href="#DejaVuSans-30" x="190.869141"/>
       <use xlink:href="#DejaVuSans-30" x="254.492188"/>
      </g>
     </g>
    </g>
    <g id="xtick_7">
     <g id="line2d_13">
      <path d="M 622.629799 307.584 
L 622.629799 41.472 
" clip-path="url(#pdef529a08f)" style="fill: none; stroke: #b0b0b0; stroke-width: 0.8; stroke-linecap: square"/>
     </g>
     <g id="line2d_14">
      <g>
       <use xlink:href="#m4015d16329" x="622.629799" y="307.584" style="stroke: #000000; stroke-width: 0.8"/>
      </g>
     </g>
     <g id="text_7">
      <!-- 30000 -->
      <g transform="translate(606.723549 322.182437) scale(0.1 -0.1)">
       <defs>
        <path id="DejaVuSans-33" d="M 2597 2516 
Q 3050 2419 3304 2112 
Q 3559 1806 3559 1356 
Q 3559 666 3084 287 
Q 2609 -91 1734 -91 
Q 1441 -91 1130 -33 
Q 819 25 488 141 
L 488 750 
Q 750 597 1062 519 
Q 1375 441 1716 441 
Q 2309 441 2620 675 
Q 2931 909 2931 1356 
Q 2931 1769 2642 2001 
Q 2353 2234 1838 2234 
L 1294 2234 
L 1294 2753 
L 1863 2753 
Q 2328 2753 2575 2939 
Q 2822 3125 2822 3475 
Q 2822 3834 2567 4026 
Q 2313 4219 1838 4219 
Q 1578 4219 1281 4162 
Q 984 4106 628 3988 
L 628 4550 
Q 988 4650 1302 4700 
Q 1616 4750 1894 4750 
Q 2613 4750 3031 4423 
Q 3450 4097 3450 3541 
Q 3450 3153 3228 2886 
Q 3006 2619 2597 2516 
z
" transform="scale(0.015625)"/>
       </defs>
       <use xlink:href="#DejaVuSans-33"/>
       <use xlink:href="#DejaVuSans-30" x="63.623047"/>
       <use xlink:href="#DejaVuSans-30" x="127.246094"/>
       <use xlink:href="#DejaVuSans-30" x="190.869141"/>
       <use xlink:href="#DejaVuSans-30" x="254.492188"/>
      </g>
     </g>
    </g>
    <g id="xtick_8">
     <g id="line2d_15">
      <path d="M 706.391504 307.584 
L 706.391504 41.472 
" clip-path="url(#pdef529a08f)" style="fill: none; stroke: #b0b0b0; stroke-width: 0.8; stroke-linecap: square"/>
     </g>
     <g id="line2d_16">
      <g>
       <use xlink:href="#m4015d16329" x="706.391504" y="307.584" style="stroke: #000000; stroke-width: 0.8"/>
      </g>
     </g>
     <g id="text_8">
      <!-- 35000 -->
      <g transform="translate(690.485254 322.182437) scale(0.1 -0.1)">
       <use xlink:href="#DejaVuSans-33"/>
       <use xlink:href="#DejaVuSans-35" x="63.623047"/>
       <use xlink:href="#DejaVuSans-30" x="127.246094"/>
       <use xlink:href="#DejaVuSans-30" x="190.869141"/>
       <use xlink:href="#DejaVuSans-30" x="254.492188"/>
      </g>
     </g>
    </g>
    <g id="xtick_9">
     <g id="line2d_17">
      <path d="M 790.153209 307.584 
L 790.153209 41.472 
" clip-path="url(#pdef529a08f)" style="fill: none; stroke: #b0b0b0; stroke-width: 0.8; stroke-linecap: square"/>
     </g>
     <g id="line2d_18">
      <g>
       <use xlink:href="#m4015d16329" x="790.153209" y="307.584" style="stroke: #000000; stroke-width: 0.8"/>
      </g>
     </g>
     <g id="text_9">
      <!-- 40000 -->
      <g transform="translate(774.246959 322.182437) scale(0.1 -0.1)">
       <defs>
        <path id="DejaVuSans-34" d="M 2419 4116 
L 825 1625 
L 2419 1625 
L 2419 4116 
z
M 2253 4666 
L 3047 4666 
L 3047 1625 
L 3713 1625 
L 3713 1100 
L 3047 1100 
L 3047 0 
L 2419 0 
L 2419 1100 
L 313 1100 
L 313 1709 
L 2253 4666 
z
" transform="scale(0.015625)"/>
       </defs>
       <use xlink:href="#DejaVuSans-34"/>
       <use xlink:href="#DejaVuSans-30" x="63.623047"/>
       <use xlink:href="#DejaVuSans-30" x="127.246094"/>
       <use xlink:href="#DejaVuSans-30" x="190.869141"/>
       <use xlink:href="#DejaVuSans-30" x="254.492188"/>
      </g>
     </g>
    </g>
    <g id="text_10">
     <!-- Timesteps -->
     <g transform="translate(462.902094 335.860562) scale(0.1 -0.1)">
      <defs>
       <path id="DejaVuSans-54" d="M -19 4666 
L 3928 4666 
L 3928 4134 
L 2272 4134 
L 2272 0 
L 1638 0 
L 1638 4134 
L -19 4134 
L -19 4666 
z
" transform="scale(0.015625)"/>
       <path id="DejaVuSans-69" d="M 603 3500 
L 1178 3500 
L 1178 0 
L 603 0 
L 603 3500 
z
M 603 4863 
L 1178 4863 
L 1178 4134 
L 603 4134 
L 603 4863 
z
" transform="scale(0.015625)"/>
       <path id="DejaVuSans-6d" d="M 3328 2828 
Q 3544 3216 3844 3400 
Q 4144 3584 4550 3584 
Q 5097 3584 5394 3201 
Q 5691 2819 5691 2113 
L 5691 0 
L 5113 0 
L 5113 2094 
Q 5113 2597 4934 2840 
Q 4756 3084 4391 3084 
Q 3944 3084 3684 2787 
Q 3425 2491 3425 1978 
L 3425 0 
L 2847 0 
L 2847 2094 
Q 2847 2600 2669 2842 
Q 2491 3084 2119 3084 
Q 1678 3084 1418 2786 
Q 1159 2488 1159 1978 
L 1159 0 
L 581 0 
L 581 3500 
L 1159 3500 
L 1159 2956 
Q 1356 3278 1631 3431 
Q 1906 3584 2284 3584 
Q 2666 3584 2933 3390 
Q 3200 3197 3328 2828 
z
" transform="scale(0.015625)"/>
       <path id="DejaVuSans-65" d="M 3597 1894 
L 3597 1613 
L 953 1613 
Q 991 1019 1311 708 
Q 1631 397 2203 397 
Q 2534 397 2845 478 
Q 3156 559 3463 722 
L 3463 178 
Q 3153 47 2828 -22 
Q 2503 -91 2169 -91 
Q 1331 -91 842 396 
Q 353 884 353 1716 
Q 353 2575 817 3079 
Q 1281 3584 2069 3584 
Q 2775 3584 3186 3129 
Q 3597 2675 3597 1894 
z
M 3022 2063 
Q 3016 2534 2758 2815 
Q 2500 3097 2075 3097 
Q 1594 3097 1305 2825 
Q 1016 2553 972 2059 
L 3022 2063 
z
" transform="scale(0.015625)"/>
       <path id="DejaVuSans-73" d="M 2834 3397 
L 2834 2853 
Q 2591 2978 2328 3040 
Q 2066 3103 1784 3103 
Q 1356 3103 1142 2972 
Q 928 2841 928 2578 
Q 928 2378 1081 2264 
Q 1234 2150 1697 2047 
L 1894 2003 
Q 2506 1872 2764 1633 
Q 3022 1394 3022 966 
Q 3022 478 2636 193 
Q 2250 -91 1575 -91 
Q 1294 -91 989 -36 
Q 684 19 347 128 
L 347 722 
Q 666 556 975 473 
Q 1284 391 1588 391 
Q 1994 391 2212 530 
Q 2431 669 2431 922 
Q 2431 1156 2273 1281 
Q 2116 1406 1581 1522 
L 1381 1569 
Q 847 1681 609 1914 
Q 372 2147 372 2553 
Q 372 3047 722 3315 
Q 1072 3584 1716 3584 
Q 2034 3584 2315 3537 
Q 2597 3491 2834 3397 
z
" transform="scale(0.015625)"/>
       <path id="DejaVuSans-74" d="M 1172 4494 
L 1172 3500 
L 2356 3500 
L 2356 3053 
L 1172 3053 
L 1172 1153 
Q 1172 725 1289 603 
Q 1406 481 1766 481 
L 2356 481 
L 2356 0 
L 1766 0 
Q 1100 0 847 248 
Q 594 497 594 1153 
L 594 3053 
L 172 3053 
L 172 3500 
L 594 3500 
L 594 4494 
L 1172 4494 
z
" transform="scale(0.015625)"/>
       <path id="DejaVuSans-70" d="M 1159 525 
L 1159 -1331 
L 581 -1331 
L 581 3500 
L 1159 3500 
L 1159 2969 
Q 1341 3281 1617 3432 
Q 1894 3584 2278 3584 
Q 2916 3584 3314 3078 
Q 3713 2572 3713 1747 
Q 3713 922 3314 415 
Q 2916 -91 2278 -91 
Q 1894 -91 1617 61 
Q 1341 213 1159 525 
z
M 3116 1747 
Q 3116 2381 2855 2742 
Q 2594 3103 2138 3103 
Q 1681 3103 1420 2742 
Q 1159 2381 1159 1747 
Q 1159 1113 1420 752 
Q 1681 391 2138 391 
Q 2594 391 2855 752 
Q 3116 1113 3116 1747 
z
" transform="scale(0.015625)"/>
      </defs>
      <use xlink:href="#DejaVuSans-54"/>
      <use xlink:href="#DejaVuSans-69" x="57.958984"/>
      <use xlink:href="#DejaVuSans-6d" x="85.742188"/>
      <use xlink:href="#DejaVuSans-65" x="183.154297"/>
      <use xlink:href="#DejaVuSans-73" x="244.677734"/>
      <use xlink:href="#DejaVuSans-74" x="296.777344"/>
      <use xlink:href="#DejaVuSans-65" x="335.986328"/>
      <use xlink:href="#DejaVuSans-70" x="397.509766"/>
      <use xlink:href="#DejaVuSans-73" x="460.986328"/>
     </g>
    </g>
   </g>
   <g id="matplotlib.axis_2">
    <g id="ytick_1">
     <g id="line2d_19">
      <path d="M 119.16 295.105302 
L 857.952 295.105302 
" clip-path="url(#pdef529a08f)" style="fill: none; stroke: #b0b0b0; stroke-width: 0.8; stroke-linecap: square"/>
     </g>
     <g id="line2d_20">
      <defs>
       <path id="mefa0a3d28e" d="M 0 0 
L -3.5 0 
" style="stroke: #000000; stroke-width: 0.8"/>
      </defs>
      <g>
       <use xlink:href="#mefa0a3d28e" x="119.16" y="295.105302" style="stroke: #000000; stroke-width: 0.8"/>
      </g>
     </g>
     <g id="text_11">
      <!-- 0 -->
      <g transform="translate(105.7975 298.90452) scale(0.1 -0.1)">
       <use xlink:href="#DejaVuSans-30"/>
      </g>
     </g>
    </g>
    <g id="ytick_2">
     <g id="line2d_21">
      <path d="M 119.16 244.639591 
L 857.952 244.639591 
" clip-path="url(#pdef529a08f)" style="fill: none; stroke: #b0b0b0; stroke-width: 0.8; stroke-linecap: square"/>
     </g>
     <g id="line2d_22">
      <g>
       <use xlink:href="#mefa0a3d28e" x="119.16" y="244.639591" style="stroke: #000000; stroke-width: 0.8"/>
      </g>
     </g>
     <g id="text_12">
      <!-- 200 -->
      <g transform="translate(93.0725 248.43881) scale(0.1 -0.1)">
       <use xlink:href="#DejaVuSans-32"/>
       <use xlink:href="#DejaVuSans-30" x="63.623047"/>
       <use xlink:href="#DejaVuSans-30" x="127.246094"/>
      </g>
     </g>
    </g>
    <g id="ytick_3">
     <g id="line2d_23">
      <path d="M 119.16 194.173881 
L 857.952 194.173881 
" clip-path="url(#pdef529a08f)" style="fill: none; stroke: #b0b0b0; stroke-width: 0.8; stroke-linecap: square"/>
     </g>
     <g id="line2d_24">
      <g>
       <use xlink:href="#mefa0a3d28e" x="119.16" y="194.173881" style="stroke: #000000; stroke-width: 0.8"/>
      </g>
     </g>
     <g id="text_13">
      <!-- 400 -->
      <g transform="translate(93.0725 197.973099) scale(0.1 -0.1)">
       <use xlink:href="#DejaVuSans-34"/>
       <use xlink:href="#DejaVuSans-30" x="63.623047"/>
       <use xlink:href="#DejaVuSans-30" x="127.246094"/>
      </g>
     </g>
    </g>
    <g id="ytick_4">
     <g id="line2d_25">
      <path d="M 119.16 143.70817 
L 857.952 143.70817 
" clip-path="url(#pdef529a08f)" style="fill: none; stroke: #b0b0b0; stroke-width: 0.8; stroke-linecap: square"/>
     </g>
     <g id="line2d_26">
      <g>
       <use xlink:href="#mefa0a3d28e" x="119.16" y="143.70817" style="stroke: #000000; stroke-width: 0.8"/>
      </g>
     </g>
     <g id="text_14">
      <!-- 600 -->
      <g transform="translate(93.0725 147.507389) scale(0.1 -0.1)">
       <defs>
        <path id="DejaVuSans-36" d="M 2113 2584 
Q 1688 2584 1439 2293 
Q 1191 2003 1191 1497 
Q 1191 994 1439 701 
Q 1688 409 2113 409 
Q 2538 409 2786 701 
Q 3034 994 3034 1497 
Q 3034 2003 2786 2293 
Q 2538 2584 2113 2584 
z
M 3366 4563 
L 3366 3988 
Q 3128 4100 2886 4159 
Q 2644 4219 2406 4219 
Q 1781 4219 1451 3797 
Q 1122 3375 1075 2522 
Q 1259 2794 1537 2939 
Q 1816 3084 2150 3084 
Q 2853 3084 3261 2657 
Q 3669 2231 3669 1497 
Q 3669 778 3244 343 
Q 2819 -91 2113 -91 
Q 1303 -91 875 529 
Q 447 1150 447 2328 
Q 447 3434 972 4092 
Q 1497 4750 2381 4750 
Q 2619 4750 2861 4703 
Q 3103 4656 3366 4563 
z
" transform="scale(0.015625)"/>
       </defs>
       <use xlink:href="#DejaVuSans-36"/>
       <use xlink:href="#DejaVuSans-30" x="63.623047"/>
       <use xlink:href="#DejaVuSans-30" x="127.246094"/>
      </g>
     </g>
    </g>
    <g id="ytick_5">
     <g id="line2d_27">
      <path d="M 119.16 93.242459 
L 857.952 93.242459 
" clip-path="url(#pdef529a08f)" style="fill: none; stroke: #b0b0b0; stroke-width: 0.8; stroke-linecap: square"/>
     </g>
     <g id="line2d_28">
      <g>
       <use xlink:href="#mefa0a3d28e" x="119.16" y="93.242459" style="stroke: #000000; stroke-width: 0.8"/>
      </g>
     </g>
     <g id="text_15">
      <!-- 800 -->
      <g transform="translate(93.0725 97.041678) scale(0.1 -0.1)">
       <defs>
        <path id="DejaVuSans-38" d="M 2034 2216 
Q 1584 2216 1326 1975 
Q 1069 1734 1069 1313 
Q 1069 891 1326 650 
Q 1584 409 2034 409 
Q 2484 409 2743 651 
Q 3003 894 3003 1313 
Q 3003 1734 2745 1975 
Q 2488 2216 2034 2216 
z
M 1403 2484 
Q 997 2584 770 2862 
Q 544 3141 544 3541 
Q 544 4100 942 4425 
Q 1341 4750 2034 4750 
Q 2731 4750 3128 4425 
Q 3525 4100 3525 3541 
Q 3525 3141 3298 2862 
Q 3072 2584 2669 2484 
Q 3125 2378 3379 2068 
Q 3634 1759 3634 1313 
Q 3634 634 3220 271 
Q 2806 -91 2034 -91 
Q 1263 -91 848 271 
Q 434 634 434 1313 
Q 434 1759 690 2068 
Q 947 2378 1403 2484 
z
M 1172 3481 
Q 1172 3119 1398 2916 
Q 1625 2713 2034 2713 
Q 2441 2713 2670 2916 
Q 2900 3119 2900 3481 
Q 2900 3844 2670 4047 
Q 2441 4250 2034 4250 
Q 1625 4250 1398 4047 
Q 1172 3844 1172 3481 
z
" transform="scale(0.015625)"/>
       </defs>
       <use xlink:href="#DejaVuSans-38"/>
       <use xlink:href="#DejaVuSans-30" x="63.623047"/>
       <use xlink:href="#DejaVuSans-30" x="127.246094"/>
      </g>
     </g>
    </g>
    <g id="ytick_6">
     <g id="line2d_29">
      <path d="M 119.16 42.776749 
L 857.952 42.776749 
" clip-path="url(#pdef529a08f)" style="fill: none; stroke: #b0b0b0; stroke-width: 0.8; stroke-linecap: square"/>
     </g>
     <g id="line2d_30">
      <g>
       <use xlink:href="#mefa0a3d28e" x="119.16" y="42.776749" style="stroke: #000000; stroke-width: 0.8"/>
      </g>
     </g>
     <g id="text_16">
      <!-- 1000 -->
      <g transform="translate(86.71 46.575968) scale(0.1 -0.1)">
       <use xlink:href="#DejaVuSans-31"/>
       <use xlink:href="#DejaVuSans-30" x="63.623047"/>
       <use xlink:href="#DejaVuSans-30" x="127.246094"/>
       <use xlink:href="#DejaVuSans-30" x="190.869141"/>
      </g>
     </g>
    </g>
    <g id="text_17">
     <!-- Entfernung (raw) -->
     <g transform="translate(80.630312 217.000656) rotate(-90) scale(0.1 -0.1)">
      <defs>
       <path id="DejaVuSans-45" d="M 628 4666 
L 3578 4666 
L 3578 4134 
L 1259 4134 
L 1259 2753 
L 3481 2753 
L 3481 2222 
L 1259 2222 
L 1259 531 
L 3634 531 
L 3634 0 
L 628 0 
L 628 4666 
z
" transform="scale(0.015625)"/>
       <path id="DejaVuSans-6e" d="M 3513 2113 
L 3513 0 
L 2938 0 
L 2938 2094 
Q 2938 2591 2744 2837 
Q 2550 3084 2163 3084 
Q 1697 3084 1428 2787 
Q 1159 2491 1159 1978 
L 1159 0 
L 581 0 
L 581 3500 
L 1159 3500 
L 1159 2956 
Q 1366 3272 1645 3428 
Q 1925 3584 2291 3584 
Q 2894 3584 3203 3211 
Q 3513 2838 3513 2113 
z
" transform="scale(0.015625)"/>
       <path id="DejaVuSans-66" d="M 2375 4863 
L 2375 4384 
L 1825 4384 
Q 1516 4384 1395 4259 
Q 1275 4134 1275 3809 
L 1275 3500 
L 2222 3500 
L 2222 3053 
L 1275 3053 
L 1275 0 
L 697 0 
L 697 3053 
L 147 3053 
L 147 3500 
L 697 3500 
L 697 3744 
Q 697 4328 969 4595 
Q 1241 4863 1831 4863 
L 2375 4863 
z
" transform="scale(0.015625)"/>
       <path id="DejaVuSans-72" d="M 2631 2963 
Q 2534 3019 2420 3045 
Q 2306 3072 2169 3072 
Q 1681 3072 1420 2755 
Q 1159 2438 1159 1844 
L 1159 0 
L 581 0 
L 581 3500 
L 1159 3500 
L 1159 2956 
Q 1341 3275 1631 3429 
Q 1922 3584 2338 3584 
Q 2397 3584 2469 3576 
Q 2541 3569 2628 3553 
L 2631 2963 
z
" transform="scale(0.015625)"/>
       <path id="DejaVuSans-75" d="M 544 1381 
L 544 3500 
L 1119 3500 
L 1119 1403 
Q 1119 906 1312 657 
Q 1506 409 1894 409 
Q 2359 409 2629 706 
Q 2900 1003 2900 1516 
L 2900 3500 
L 3475 3500 
L 3475 0 
L 2900 0 
L 2900 538 
Q 2691 219 2414 64 
Q 2138 -91 1772 -91 
Q 1169 -91 856 284 
Q 544 659 544 1381 
z
M 1991 3584 
L 1991 3584 
z
" transform="scale(0.015625)"/>
       <path id="DejaVuSans-67" d="M 2906 1791 
Q 2906 2416 2648 2759 
Q 2391 3103 1925 3103 
Q 1463 3103 1205 2759 
Q 947 2416 947 1791 
Q 947 1169 1205 825 
Q 1463 481 1925 481 
Q 2391 481 2648 825 
Q 2906 1169 2906 1791 
z
M 3481 434 
Q 3481 -459 3084 -895 
Q 2688 -1331 1869 -1331 
Q 1566 -1331 1297 -1286 
Q 1028 -1241 775 -1147 
L 775 -588 
Q 1028 -725 1275 -790 
Q 1522 -856 1778 -856 
Q 2344 -856 2625 -561 
Q 2906 -266 2906 331 
L 2906 616 
Q 2728 306 2450 153 
Q 2172 0 1784 0 
Q 1141 0 747 490 
Q 353 981 353 1791 
Q 353 2603 747 3093 
Q 1141 3584 1784 3584 
Q 2172 3584 2450 3431 
Q 2728 3278 2906 2969 
L 2906 3500 
L 3481 3500 
L 3481 434 
z
" transform="scale(0.015625)"/>
       <path id="DejaVuSans-20" transform="scale(0.015625)"/>
       <path id="DejaVuSans-28" d="M 1984 4856 
Q 1566 4138 1362 3434 
Q 1159 2731 1159 2009 
Q 1159 1288 1364 580 
Q 1569 -128 1984 -844 
L 1484 -844 
Q 1016 -109 783 600 
Q 550 1309 550 2009 
Q 550 2706 781 3412 
Q 1013 4119 1484 4856 
L 1984 4856 
z
" transform="scale(0.015625)"/>
       <path id="DejaVuSans-61" d="M 2194 1759 
Q 1497 1759 1228 1600 
Q 959 1441 959 1056 
Q 959 750 1161 570 
Q 1363 391 1709 391 
Q 2188 391 2477 730 
Q 2766 1069 2766 1631 
L 2766 1759 
L 2194 1759 
z
M 3341 1997 
L 3341 0 
L 2766 0 
L 2766 531 
Q 2569 213 2275 61 
Q 1981 -91 1556 -91 
Q 1019 -91 701 211 
Q 384 513 384 1019 
Q 384 1609 779 1909 
Q 1175 2209 1959 2209 
L 2766 2209 
L 2766 2266 
Q 2766 2663 2505 2880 
Q 2244 3097 1772 3097 
Q 1472 3097 1187 3025 
Q 903 2953 641 2809 
L 641 3341 
Q 956 3463 1253 3523 
Q 1550 3584 1831 3584 
Q 2591 3584 2966 3190 
Q 3341 2797 3341 1997 
z
" transform="scale(0.015625)"/>
       <path id="DejaVuSans-77" d="M 269 3500 
L 844 3500 
L 1563 769 
L 2278 3500 
L 2956 3500 
L 3675 769 
L 4391 3500 
L 4966 3500 
L 4050 0 
L 3372 0 
L 2619 2869 
L 1863 0 
L 1184 0 
L 269 3500 
z
" transform="scale(0.015625)"/>
       <path id="DejaVuSans-29" d="M 513 4856 
L 1013 4856 
Q 1481 4119 1714 3412 
Q 1947 2706 1947 2009 
Q 1947 1309 1714 600 
Q 1481 -109 1013 -844 
L 513 -844 
Q 928 -128 1133 580 
Q 1338 1288 1338 2009 
Q 1338 2731 1133 3434 
Q 928 4138 513 4856 
z
" transform="scale(0.015625)"/>
      </defs>
      <use xlink:href="#DejaVuSans-45"/>
      <use xlink:href="#DejaVuSans-6e" x="63.183594"/>
      <use xlink:href="#DejaVuSans-74" x="126.5625"/>
      <use xlink:href="#DejaVuSans-66" x="165.771484"/>
      <use xlink:href="#DejaVuSans-65" x="200.976562"/>
      <use xlink:href="#DejaVuSans-72" x="262.5"/>
      <use xlink:href="#DejaVuSans-6e" x="301.863281"/>
      <use xlink:href="#DejaVuSans-75" x="365.242188"/>
      <use xlink:href="#DejaVuSans-6e" x="428.621094"/>
      <use xlink:href="#DejaVuSans-67" x="492"/>
      <use xlink:href="#DejaVuSans-20" x="555.476562"/>
      <use xlink:href="#DejaVuSans-28" x="587.263672"/>
      <use xlink:href="#DejaVuSans-72" x="626.277344"/>
      <use xlink:href="#DejaVuSans-61" x="667.390625"/>
      <use xlink:href="#DejaVuSans-77" x="728.669922"/>
      <use xlink:href="#DejaVuSans-29" x="810.457031"/>
     </g>
    </g>
   </g>
   <g id="line2d_31">
    <path d="M 120.059567 42.52442 
L 120.595642 44.29072 
L 121.131717 44.29072 
L 122.203867 47.82332 
L 123.276017 47.82332 
L 124.348167 51.35592 
L 124.884241 51.35592 
L 125.420316 53.12222 
L 125.956391 53.12222 
L 126.492466 54.888519 
L 127.028541 54.888519 
L 128.100691 58.421119 
L 128.636766 58.421119 
L 129.172841 60.187419 
L 131.31714 60.187419 
L 131.853215 61.953719 
L 132.38929 61.953719 
L 133.46144 65.486319 
L 133.997515 65.486319 
L 134.53359 67.252619 
L 135.069665 67.252619 
L 136.141815 70.785218 
L 136.67789 70.785218 
L 137.213964 72.551518 
L 137.750039 72.551518 
L 138.286114 74.317818 
L 138.822189 74.317818 
L 139.358264 76.084118 
L 140.430414 76.084118 
L 140.966489 77.850418 
L 141.502564 77.850418 
L 143.110789 83.149317 
L 144.182938 83.149317 
L 145.791163 88.448217 
L 146.327238 88.448217 
L 146.863313 90.214517 
L 147.935463 90.214517 
L 149.007613 93.747117 
L 149.543687 93.747117 
L 150.079762 95.513416 
L 150.615837 95.513416 
L 151.151912 97.279716 
L 151.687987 97.279716 
L 152.224062 99.046016 
L 153.296212 99.046016 
L 153.832287 100.812316 
L 154.368362 100.812316 
L 154.904437 102.578616 
L 155.976586 102.578616 
L 156.512661 104.344916 
L 157.584811 104.344916 
L 158.120886 106.111216 
L 159.193036 106.111216 
L 160.265186 109.643815 
L 160.801261 109.643815 
L 161.873411 113.176415 
L 162.409485 113.176415 
L 162.94556 114.942715 
L 163.481635 114.942715 
L 164.01771 116.709015 
L 164.553785 116.709015 
L 165.08986 118.475315 
L 165.625935 118.475315 
L 166.698085 122.007914 
L 167.770235 122.007914 
L 168.842384 125.540514 
L 169.914534 125.540514 
L 170.450609 127.306814 
L 170.986684 127.306814 
L 171.522759 129.073114 
L 172.058834 129.073114 
L 172.594909 130.839414 
L 173.667059 130.839414 
L 175.811358 137.904613 
L 176.347433 137.904613 
L 177.419583 141.437213 
L 178.491733 141.437213 
L 179.027808 143.203513 
L 179.563883 143.203513 
L 181.172107 148.502413 
L 182.780332 148.502413 
L 183.316407 150.268712 
L 183.852482 150.268712 
L 184.388557 152.035012 
L 184.924632 152.035012 
L 185.460707 153.801312 
L 185.996782 153.801312 
L 186.532857 155.567612 
L 187.605006 155.567612 
L 188.141081 157.333912 
L 188.677156 157.333912 
L 189.213231 159.100212 
L 189.749306 159.100212 
L 190.285381 160.866512 
L 190.821456 160.866512 
L 191.893606 164.399111 
L 192.965755 164.399111 
L 193.50183 166.165411 
L 194.037905 166.165411 
L 195.110055 169.698011 
L 196.182205 169.698011 
L 196.71828 171.464311 
L 197.254355 171.464311 
L 198.86258 176.76321 
L 199.398654 176.76321 
L 199.934729 178.52951 
L 200.470804 178.52951 
L 201.006879 180.29581 
L 202.079029 180.29581 
L 202.615104 42.52442 
L 696.340099 42.52442 
L 696.876174 44.29072 
L 697.948324 44.29072 
L 698.484399 46.05702 
L 699.020474 46.05702 
L 699.556549 47.82332 
L 700.628699 47.82332 
L 702.236923 53.12222 
L 702.772998 53.12222 
L 703.309073 54.888519 
L 704.381223 54.888519 
L 705.989448 60.187419 
L 706.525523 60.187419 
L 707.061598 61.953719 
L 707.597673 61.953719 
L 708.133747 63.720019 
L 708.669822 63.720019 
L 709.205897 65.486319 
L 709.741972 65.486319 
L 710.814122 69.018918 
L 712.422347 69.018918 
L 714.030571 74.317818 
L 714.566646 74.317818 
L 715.102721 76.084118 
L 715.638796 76.084118 
L 716.174871 77.850418 
L 716.710946 77.850418 
L 717.247021 79.616718 
L 717.783096 79.616718 
L 718.319171 81.383017 
L 718.855246 81.383017 
L 719.391321 83.149317 
L 719.927396 83.149317 
L 720.46347 84.915617 
L 721.53562 84.915617 
L 722.071695 86.681917 
L 722.60777 86.681917 
L 723.143845 88.448217 
L 723.67992 88.448217 
L 725.288145 93.747117 
L 725.82422 93.747117 
L 727.432444 99.046016 
L 727.968519 99.046016 
L 729.040669 102.578616 
L 729.576744 102.578616 
L 731.184969 107.877516 
L 732.257119 107.877516 
L 732.793193 109.643815 
L 733.329268 109.643815 
L 734.401418 113.176415 
L 736.009643 113.176415 
L 736.545718 114.942715 
L 737.081793 114.942715 
L 737.617868 116.709015 
L 738.153943 116.709015 
L 738.690017 118.475315 
L 740.834317 118.475315 
L 741.370392 120.241615 
L 742.978617 120.241615 
L 743.514692 122.007914 
L 744.050767 122.007914 
L 745.122916 125.540514 
L 745.658991 125.540514 
L 746.731141 129.073114 
L 747.267216 129.073114 
L 748.875441 134.372014 
L 749.411516 134.372014 
L 750.483666 137.904613 
L 751.019741 137.904613 
L 751.555815 139.670913 
L 752.627965 139.670913 
L 753.16404 141.437213 
L 754.23619 141.437213 
L 754.772265 143.203513 
L 755.30834 143.203513 
L 755.844415 144.969813 
L 756.38049 144.969813 
L 756.916565 146.736113 
L 757.452639 146.736113 
L 757.988714 148.502413 
L 758.524789 148.502413 
L 760.133014 153.801312 
L 762.813389 153.801312 
L 763.885538 157.333912 
L 764.957688 157.333912 
L 766.029838 160.866512 
L 766.565913 160.866512 
L 767.101988 162.632811 
L 768.174138 162.632811 
L 768.710213 164.399111 
L 769.246288 164.399111 
L 769.782362 166.165411 
L 770.318437 166.165411 
L 770.854512 167.931711 
L 771.390587 167.931711 
L 771.926662 169.698011 
L 773.534887 169.698011 
L 774.607037 173.230611 
L 775.679187 173.230611 
L 776.215261 174.996911 
L 776.751336 174.996911 
L 777.287411 176.76321 
L 777.823486 176.76321 
L 778.359561 178.52951 
L 778.895636 178.52951 
L 779.431711 180.29581 
L 780.503861 180.29581 
L 781.039936 182.06211 
L 781.576011 182.06211 
L 782.64816 185.59471 
L 783.184235 185.59471 
L 784.256385 189.12731 
L 784.79246 189.12731 
L 785.328535 190.893609 
L 785.86461 190.893609 
L 786.93676 194.426209 
L 787.472835 194.426209 
L 788.00891 196.192509 
L 788.544984 196.192509 
L 789.081059 197.958809 
L 789.617134 197.958809 
L 790.153209 199.725109 
L 790.689284 199.725109 
L 791.225359 201.491409 
L 791.761434 201.491409 
L 792.297509 203.257708 
L 792.833584 203.257708 
L 793.369659 205.024008 
L 794.977883 205.024008 
L 795.513958 206.790308 
L 796.050033 206.790308 
L 797.122183 210.322908 
L 798.194333 210.322908 
L 799.266483 213.855508 
L 800.338633 213.855508 
L 801.410782 217.388107 
L 802.482932 217.388107 
L 803.555082 220.920707 
L 805.163307 220.920707 
L 805.699382 222.687007 
L 806.771532 222.687007 
L 807.843681 226.219607 
L 808.915831 226.219607 
L 809.987981 229.752207 
L 811.060131 229.752207 
L 811.596206 231.518506 
L 812.668356 231.518506 
L 813.20443 233.284806 
L 813.740505 233.284806 
L 814.27658 235.051106 
L 814.812655 235.051106 
L 815.34873 236.817406 
L 815.884805 236.817406 
L 817.49303 242.116306 
L 818.029105 242.116306 
L 819.101255 245.648905 
L 821.245554 245.648905 
L 822.317704 249.181505 
L 823.389854 249.181505 
L 824.462004 252.714105 
L 826.606303 252.714105 
L 827.142378 254.480405 
L 827.678453 254.480405 
L 829.822753 261.545604 
L 830.358828 261.545604 
L 831.430978 265.078204 
L 832.503127 265.078204 
L 834.111352 270.377104 
L 835.183502 270.377104 
L 835.719577 272.143403 
L 836.791727 272.143403 
L 837.327802 273.909703 
L 837.863877 273.909703 
L 838.399951 275.676003 
L 838.936026 275.676003 
L 839.472101 277.442303 
L 840.008176 277.442303 
L 840.544251 279.208603 
L 841.616401 279.208603 
L 842.152476 280.974903 
L 843.224626 280.974903 
L 843.760701 282.741203 
L 844.296775 282.741203 
L 844.83285 284.507502 
L 846.97715 284.507502 
L 848.0493 288.040102 
L 848.585375 288.040102 
L 849.12145 289.806402 
L 850.1936 289.806402 
L 851.265749 293.339002 
L 852.337899 293.339002 
L 852.873974 42.52442 
L 853.410049 295.105302 
L 853.946124 42.52442 
L 855.554349 42.52442 
L 855.554349 42.52442 
" clip-path="url(#pdef529a08f)" style="fill: none; stroke: #1f77b4; stroke-width: 1.5; stroke-linecap: square"/>
   </g>
   <g id="patch_3">
    <path d="M 119.16 307.584 
L 119.16 41.472 
" style="fill: none; stroke: #000000; stroke-width: 0.8; stroke-linejoin: miter; stroke-linecap: square"/>
   </g>
   <g id="patch_4">
    <path d="M 857.952 307.584 
L 857.952 41.472 
" style="fill: none; stroke: #000000; stroke-width: 0.8; stroke-linejoin: miter; stroke-linecap: square"/>
   </g>
   <g id="patch_5">
    <path d="M 119.16 307.584 
L 857.952 307.584 
" style="fill: none; stroke: #000000; stroke-width: 0.8; stroke-linejoin: miter; stroke-linecap: square"/>
   </g>
   <g id="patch_6">
    <path d="M 119.16 41.472 
L 857.952 41.472 
" style="fill: none; stroke: #000000; stroke-width: 0.8; stroke-linejoin: miter; stroke-linecap: square"/>
   </g>
   <g id="text_18">
    <!-- Entfernungsmessung über Zeit mittels Sonar -->
    <g transform="translate(353.556 35.472) scale(0.12 -0.12)">
     <defs>
      <path id="DejaVuSans-fc" d="M 544 1381 
L 544 3500 
L 1119 3500 
L 1119 1403 
Q 1119 906 1312 657 
Q 1506 409 1894 409 
Q 2359 409 2629 706 
Q 2900 1003 2900 1516 
L 2900 3500 
L 3475 3500 
L 3475 0 
L 2900 0 
L 2900 538 
Q 2691 219 2414 64 
Q 2138 -91 1772 -91 
Q 1169 -91 856 284 
Q 544 659 544 1381 
z
M 1991 3584 
L 1991 3584 
z
M 2278 4850 
L 2912 4850 
L 2912 4219 
L 2278 4219 
L 2278 4850 
z
M 1056 4850 
L 1690 4850 
L 1690 4219 
L 1056 4219 
L 1056 4850 
z
" transform="scale(0.015625)"/>
      <path id="DejaVuSans-62" d="M 3116 1747 
Q 3116 2381 2855 2742 
Q 2594 3103 2138 3103 
Q 1681 3103 1420 2742 
Q 1159 2381 1159 1747 
Q 1159 1113 1420 752 
Q 1681 391 2138 391 
Q 2594 391 2855 752 
Q 3116 1113 3116 1747 
z
M 1159 2969 
Q 1341 3281 1617 3432 
Q 1894 3584 2278 3584 
Q 2916 3584 3314 3078 
Q 3713 2572 3713 1747 
Q 3713 922 3314 415 
Q 2916 -91 2278 -91 
Q 1894 -91 1617 61 
Q 1341 213 1159 525 
L 1159 0 
L 581 0 
L 581 4863 
L 1159 4863 
L 1159 2969 
z
" transform="scale(0.015625)"/>
      <path id="DejaVuSans-5a" d="M 359 4666 
L 4025 4666 
L 4025 4184 
L 1075 531 
L 4097 531 
L 4097 0 
L 288 0 
L 288 481 
L 3238 4134 
L 359 4134 
L 359 4666 
z
" transform="scale(0.015625)"/>
      <path id="DejaVuSans-6c" d="M 603 4863 
L 1178 4863 
L 1178 0 
L 603 0 
L 603 4863 
z
" transform="scale(0.015625)"/>
      <path id="DejaVuSans-53" d="M 3425 4513 
L 3425 3897 
Q 3066 4069 2747 4153 
Q 2428 4238 2131 4238 
Q 1616 4238 1336 4038 
Q 1056 3838 1056 3469 
Q 1056 3159 1242 3001 
Q 1428 2844 1947 2747 
L 2328 2669 
Q 3034 2534 3370 2195 
Q 3706 1856 3706 1288 
Q 3706 609 3251 259 
Q 2797 -91 1919 -91 
Q 1588 -91 1214 -16 
Q 841 59 441 206 
L 441 856 
Q 825 641 1194 531 
Q 1563 422 1919 422 
Q 2459 422 2753 634 
Q 3047 847 3047 1241 
Q 3047 1584 2836 1778 
Q 2625 1972 2144 2069 
L 1759 2144 
Q 1053 2284 737 2584 
Q 422 2884 422 3419 
Q 422 4038 858 4394 
Q 1294 4750 2059 4750 
Q 2388 4750 2728 4690 
Q 3069 4631 3425 4513 
z
" transform="scale(0.015625)"/>
      <path id="DejaVuSans-6f" d="M 1959 3097 
Q 1497 3097 1228 2736 
Q 959 2375 959 1747 
Q 959 1119 1226 758 
Q 1494 397 1959 397 
Q 2419 397 2687 759 
Q 2956 1122 2956 1747 
Q 2956 2369 2687 2733 
Q 2419 3097 1959 3097 
z
M 1959 3584 
Q 2709 3584 3137 3096 
Q 3566 2609 3566 1747 
Q 3566 888 3137 398 
Q 2709 -91 1959 -91 
Q 1206 -91 779 398 
Q 353 888 353 1747 
Q 353 2609 779 3096 
Q 1206 3584 1959 3584 
z
" transform="scale(0.015625)"/>
     </defs>
     <use xlink:href="#DejaVuSans-45"/>
     <use xlink:href="#DejaVuSans-6e" x="63.183594"/>
     <use xlink:href="#DejaVuSans-74" x="126.5625"/>
     <use xlink:href="#DejaVuSans-66" x="165.771484"/>
     <use xlink:href="#DejaVuSans-65" x="200.976562"/>
     <use xlink:href="#DejaVuSans-72" x="262.5"/>
     <use xlink:href="#DejaVuSans-6e" x="301.863281"/>
     <use xlink:href="#DejaVuSans-75" x="365.242188"/>
     <use xlink:href="#DejaVuSans-6e" x="428.621094"/>
     <use xlink:href="#DejaVuSans-67" x="492"/>
     <use xlink:href="#DejaVuSans-73" x="555.476562"/>
     <use xlink:href="#DejaVuSans-6d" x="607.576172"/>
     <use xlink:href="#DejaVuSans-65" x="704.988281"/>
     <use xlink:href="#DejaVuSans-73" x="766.511719"/>
     <use xlink:href="#DejaVuSans-73" x="818.611328"/>
     <use xlink:href="#DejaVuSans-75" x="870.710938"/>
     <use xlink:href="#DejaVuSans-6e" x="934.089844"/>
     <use xlink:href="#DejaVuSans-67" x="997.46875"/>
     <use xlink:href="#DejaVuSans-20" x="1060.945312"/>
     <use xlink:href="#DejaVuSans-fc" x="1092.732422"/>
     <use xlink:href="#DejaVuSans-62" x="1156.111328"/>
     <use xlink:href="#DejaVuSans-65" x="1219.587891"/>
     <use xlink:href="#DejaVuSans-72" x="1281.111328"/>
     <use xlink:href="#DejaVuSans-20" x="1322.224609"/>
     <use xlink:href="#DejaVuSans-5a" x="1354.011719"/>
     <use xlink:href="#DejaVuSans-65" x="1422.517578"/>
     <use xlink:href="#DejaVuSans-69" x="1484.041016"/>
     <use xlink:href="#DejaVuSans-74" x="1511.824219"/>
     <use xlink:href="#DejaVuSans-20" x="1551.033203"/>
     <use xlink:href="#DejaVuSans-6d" x="1582.820312"/>
     <use xlink:href="#DejaVuSans-69" x="1680.232422"/>
     <use xlink:href="#DejaVuSans-74" x="1708.015625"/>
     <use xlink:href="#DejaVuSans-74" x="1747.224609"/>
     <use xlink:href="#DejaVuSans-65" x="1786.433594"/>
     <use xlink:href="#DejaVuSans-6c" x="1847.957031"/>
     <use xlink:href="#DejaVuSans-73" x="1875.740234"/>
     <use xlink:href="#DejaVuSans-20" x="1927.839844"/>
     <use xlink:href="#DejaVuSans-53" x="1959.626953"/>
     <use xlink:href="#DejaVuSans-6f" x="2023.103516"/>
     <use xlink:href="#DejaVuSans-6e" x="2084.285156"/>
     <use xlink:href="#DejaVuSans-61" x="2147.664062"/>
     <use xlink:href="#DejaVuSans-72" x="2208.943359"/>
    </g>
   </g>
  </g>
 </g>
 <defs>
  <clipPath id="pdef529a08f">
   <rect x="119.16" y="41.472" width="738.792" height="266.112"/>
  </clipPath>
 </defs>
</svg>
